/* XPM */
static char *_b94c84c32ac4f43ddfc95a2d81974b8KA7j8wucRPQzyxMC[] = {
/* columns rows colors chars-per-pixel */
"16 16 126 2 ",
"   c None",
".  c #743C97",
"X  c #753D97",
"o  c #753E98",
"O  c #763F98",
"+  c #773F99",
"@  c #774099",
"#  c #774199",
"$  c #784199",
"%  c #78429A",
"&  c #79429A",
"*  c #79439A",
"=  c #7A449B",
"-  c #7A459B",
";  c #7B459B",
":  c #7B469C",
">  c #7C479C",
",  c #7C489D",
"<  c #7D4A9D",
"1  c #7E4A9E",
"2  c #7E4B9E",
"3  c #7F4B9E",
"4  c #7F4C9F",
"5  c #804D9F",
"6  c #804E9F",
"7  c #814EA0",
"8  c #814FA0",
"9  c #8250A0",
"0  c #8250A1",
"q  c #8251A1",
"w  c #8351A1",
"e  c #8352A1",
"r  c #8352A2",
"t  c #8453A2",
"y  c #8453A3",
"u  c #8454A2",
"i  c #8554A2",
"p  c #8554A3",
"a  c #8555A3",
"s  c #8656A3",
"d  c #8656A4",
"f  c #8657A4",
"g  c #8757A4",
"h  c #8758A4",
"j  c #8858A5",
"k  c #8859A5",
"l  c #885AA5",
"z  c #895AA5",
"x  c #8959A6",
"c  c #895BA6",
"v  c #8A5CA6",
"b  c #8A5DA7",
"n  c #8B5EA7",
"m  c #8C5EA7",
"M  c #8C5FA8",
"N  c #8D5FA9",
"B  c #8C60A8",
"V  c #8D60A8",
"C  c #8E61A9",
"Z  c #8E62A9",
"A  c #8E63A9",
"S  c #8F63AA",
"D  c #8F64AA",
"F  c #9065AA",
"G  c #9065AB",
"H  c #9166AB",
"J  c #9167AB",
"K  c #9267AC",
"L  c #946BAE",
"P  c #956BAE",
"I  c #956AAF",
"U  c #976EB1",
"Y  c #9972B2",
"T  c #9F79B6",
"R  c #A37EB9",
"E  c #A37FB9",
"W  c #A37FBA",
"Q  c #A481BA",
"!  c #A582BB",
"~  c #A683BC",
"^  c #A784BC",
"/  c #A784BD",
"(  c #A886BD",
")  c #A987BE",
"_  c #AD8DC2",
"`  c #AE8DC2",
"'  c #B496C6",
"]  c #B79BC9",
"[  c #BCA2CC",
"{  c #C0A6CF",
"}  c #C0A7D0",
"|  c #C0A8D0",
" . c #C6AFD4",
".. c #C7B1D5",
"X. c #C8B2D6",
"o. c #CAB5D7",
"O. c #CEBADA",
"+. c #CEBBDA",
"@. c #CFBCDB",
"#. c #D1BFDC",
"$. c #D3C2DE",
"%. c #D4C4DF",
"&. c #D8C9E2",
"*. c #D9C9E2",
"=. c #D9CAE2",
"-. c #DACBE3",
";. c #DBCDE4",
":. c #DFD2E7",
">. c #E0D3E7",
",. c #E0D4E8",
"<. c #E1D4E8",
"1. c #E1D5E8",
"2. c #E1D6E9",
"3. c #E2D6E9",
"4. c #E7DDED",
"5. c #E7DEED",
"6. c #E8DEED",
"7. c #E8DFEE",
"8. c #E9E0EE",
"9. c #E9E1EF",
"0. c #EAE1EF",
"q. c #EFE9F3",
"w. c #F7F4F9",
"e. c #F7F5F9",
"r. c #F8F5F9",
"t. c white",
/* pixels */
"    F F A A A n n k k d p t q q ",
"  K F D A A m n k k d p p q q 8 ",
"  F D A L ( ( ^ ~ Q Q E E q 8 5 ",
"  F A E ;.9.t.t.t.t.t.t.t.X.5 4 ",
"  A L 9.t.$.2.2.2.2.2.t.t.t.^ 3 ",
"  A %.t.t.t.[ 2.2.2.2.| q.t.e.p ",
"  A 9.t.2.9.r.o.t.t.t.t.{ t.t.M ",
"  M Y r.t.-.e.7.-.t.t.4.@.t.` > ",
"  n n T t.t.-.t.-.7.e...t.+.> - ",
"  n k k ' t.e.2.>.k ] e.4.> : - ",
"  k k h p #.t.e.} { @.+.t : - * ",
"  k h d p t 7.t.t.t.t.L : - * * ",
"  k d p t q k e.t.t.` > - * * # ",
"  d p p q q 8 U :. .> : - * # + ",
"  p p q q 8 5 3 3 3 : - * # + . ",
"  p t q 8 5 3 3 3 : - * * + + . "
};
