<?xml version="1.0" encoding="utf-8"?>
<!-- Generator: Adobe Illustrator 24.0.1, SVG Export Plug-In . SVG Version: 6.00 Build 0)  -->
<svg version="1.1"
	 id="svg2176" inkscape:version="0.92.4 (unknown)" sodipodi:docname="selenium-HighContrast-scalable.svg" xmlns:cc="http://creativecommons.org/ns#" xmlns:dc="http://purl.org/dc/elements/1.1/" xmlns:inkscape="http://www.inkscape.org/namespaces/inkscape" xmlns:rdf="http://www.w3.org/1999/02/22-rdf-syntax-ns#" xmlns:sodipodi="http://sodipodi.sourceforge.net/DTD/sodipodi-0.dtd" xmlns:svg="http://www.w3.org/2000/svg"
	 xmlns="http://www.w3.org/2000/svg" xmlns:xlink="http://www.w3.org/1999/xlink" x="0px" y="0px" viewBox="0 0 266 266"
	 style="enable-background:new 0 0 266 266;" xml:space="preserve">
<style type="text/css">
	.st0{fill-rule:evenodd;clip-rule:evenodd;fill:url(#SVGID_1_);}
	.st1{fill-rule:evenodd;clip-rule:evenodd;fill:#FFFFFF;}
</style>
<sodipodi:namedview  bordercolor="#666666" borderopacity="1.0" id="base" inkscape:current-layer="layer1" inkscape:cx="121.18379" inkscape:cy="143.93631" inkscape:document-units="mm" inkscape:pagecheckerboard="true" inkscape:pageopacity="0.0" inkscape:pageshadow="2" inkscape:window-height="1088" inkscape:window-maximized="1" inkscape:window-width="2048" inkscape:window-x="0" inkscape:window-y="27" inkscape:zoom="3.2460671" pagecolor="#ffffff" showgrid="false" units="px">
	</sodipodi:namedview>
<g>
	<linearGradient id="SVGID_1_" gradientUnits="userSpaceOnUse" x1="266.4528" y1="235.7034" x2="-1.4528" y2="29.2966">
		<stop  offset="0" style="stop-color:#43305E"/>
		<stop  offset="1" style="stop-color:#7C459B"/>
	</linearGradient>
	<path class="st0" d="M240.8,258H24.2C14.7,258,7,250.3,7,240.8V24.2C7,14.7,14.7,7,24.2,7h216.6c9.5,0,17.2,7.7,17.2,17.2v216.6
		C258,250.3,250.3,258,240.8,258z"/>
	<g>
		<path class="st1" d="M165.6,163.4h20.1l51.6-64.1c1-1.2,1-2.9,0.1-4.1l-36.4-48.8c-0.7-0.9-1.7-1.5-3-1.5h-65.6H71.7l23.5,29.6
			h26.2h48.8h0.5c2.4,0,4.8,0.4,6.9,1.2l0.2,0.1c2.4,0.9,4.3,2,6,3.4c1.4,1.2,2.8,2.6,3.9,4.1l0.7,1l0.1,0.1l8.9,11.9
			c0.3,0.4,0.6,0.9,0.9,1.4c4.2,6.7,3.7,15.2-1.4,21.5l-8.1,10l-21.6,26.7l-3.8,4.8L165.6,163.4z"/>
		<path class="st1" d="M165.6,163.4h20.1l51.6-64.1c0.4-0.5,0.6-1,0.7-1.6h-39.6c4.2,6.7,3.7,15.2-1.4,21.5l-8.1,10l-21.6,26.7
			l-3.8,4.8L165.6,163.4z"/>
		<path class="st1" d="M61.3,50L27.6,95.2c-0.9,1.3-0.9,2.9,0.1,4.1L124.9,220h7.6h7.6l39.2-48.6c-18,0-36.1,0-54.1,0
			c-3.6,0-6.7-1.5-9-4.3l-53.7-66.7c-1.3-1.6-1.3-3.7-0.1-5.3l4.5-5.9l53.9,68c0.6,0.8,1.5,1.2,2.6,1.2c3.3,0,6.6,0,9.9,0
			c0-7.4,0-14.8,0-22.1H132c-1.5,0-2.7-0.6-3.7-1.8L61.3,50z"/>
		<path class="st1" d="M26.9,97.8c0.1,0.6,0.3,1.1,0.7,1.6L124.9,220h7.6h7.6l39.2-48.6c-18,0-36.1,0-54.1,0c-3.6,0-6.7-1.5-9-4.3
			l-53.7-66.7c-0.6-0.8-1-1.7-1-2.7H26.9z"/>
		<polygon class="st1" points="124.9,220 132.5,220 140.1,220 142.3,196.4 127.2,196.4 		"/>
		<path class="st1" d="M162.5,171.4h-37.3c-3.6,0-6.7-1.5-9-4.3l-53.7-66.7c-0.6-0.8-1-1.7-1-2.7H47.7l79.5,98.6h7.6h7.6
			L162.5,171.4z"/>
		<path class="st1" d="M60.3,80.9l-7.8,10.4c-2.9,3.8-2.8,9,0.2,12.8l50.8,63c2.3,2.8,5.4,4.3,9,4.3c4.2,0,8.5,0,12.7,0
			c-3.6,0-6.7-1.5-9-4.3l-53.7-66.7c-1.3-1.6-1.3-3.7-0.1-5.3l4.5-5.9L60.3,80.9z"/>
		<path class="st1" d="M170.7,74.6c2.4,0,4.8,0.4,6.9,1.2c4,1.4,7.5,4,10.2,7.6l9.7,13c5.2,6.9,5,16.2-0.4,22.9l-8.1,10l-21.6,26.7
			l-3.8,4.8l0.2,0.3l13-16.2l21.6-26.7l8.1-10c5.4-6.7,5.6-16,0.4-22.9l-9.7-13c-4.3-5.7-10.4-8.8-17.6-8.8H86.6l8.6,11.1h75H170.7z
			"/>
		<path class="st1" d="M185.9,64.3L200,45.4c-0.5-0.3-1.2-0.5-1.9-0.5h-65.6H71.7l14.7,18.5h35h48.3h10
			C181.9,63.4,183.9,63.7,185.9,64.3z"/>
		<path class="st1" d="M237.4,95.2l-36.4-48.8c-0.7-0.9-1.7-1.5-3-1.5h-65.6l63,1.3c0.5,0,1,0.3,1.2,0.7c0.2,0.5,0.2,1-0.1,1.4
			l-10.7,15.9L199,48.9c0.3-0.3,0.7-0.5,1.1-0.5c0.4,0,0.8,0.2,1.1,0.5L237.4,95.2z"/>
		<path class="st1" d="M47.6,68.3L27.6,95.2c-0.9,1.3-0.9,2.9,0.1,4.1l27.1,33.6h0L29,100c-0.2-0.3-0.3-0.7-0.1-1.1
			c0.2-0.4,0.5-0.6,0.9-0.6l20.3-0.5l-20.5-0.6c-0.5,0-0.8-0.3-1-0.7c-0.2-0.4-0.2-0.9,0.1-1.2L47.6,68.3L47.6,68.3z"/>
		<path class="st1" d="M167.5,84.5c2.7,0,5,1.1,6.7,3.3l13.1,16.9c1.4,1.9,1.4,4.4-0.1,6.2l-4.9,6.1c-8.5,11-16.9,21.8-25.5,32.6
			c-18.3-21.3-36.1-43.5-53.9-65.1C124.4,84.5,145.9,84.5,167.5,84.5z"/>
	</g>
</g>
</svg>
