/* XPM */
static char *_fd86600b04b42d9f3b9080b603066cffm9UzY1ePHx2sqJu[] = {
/* columns rows colors chars-per-pixel */
"32 32 197 2 ",
"   c None",
".  c #743B97",
"X  c #743C97",
"o  c #753D97",
"O  c #753D98",
"+  c #753E98",
"@  c #763E98",
"#  c #763F98",
"$  c #773F99",
"%  c #774099",
"&  c #774199",
"*  c #784199",
"=  c #78419A",
"-  c #78429A",
";  c #79429A",
":  c #79439A",
">  c #79449B",
",  c #7A449B",
"<  c #7A459B",
"1  c #7B459B",
"2  c #7B469C",
"3  c #7C479C",
"4  c #7C489C",
"5  c #7C489D",
"6  c #7D489D",
"7  c #7D499D",
"8  c #7D4A9D",
"9  c #7E4A9E",
"0  c #7E4B9E",
"q  c #7F4B9E",
"w  c #7F4C9E",
"e  c #7F4C9F",
"r  c #804D9F",
"t  c #804E9F",
"y  c #804EA0",
"u  c #814EA0",
"i  c #814FA0",
"p  c #8250A0",
"a  c #8250A1",
"s  c #8251A1",
"d  c #8351A1",
"f  c #8352A1",
"g  c #8352A2",
"h  c #8453A2",
"j  c #8454A2",
"k  c #8554A2",
"l  c #8554A3",
"z  c #8555A3",
"x  c #8656A3",
"c  c #8656A4",
"v  c #8657A4",
"b  c #8757A4",
"n  c #8757A5",
"m  c #8758A4",
"M  c #8758A5",
"N  c #8858A5",
"B  c #8859A5",
"V  c #885AA5",
"C  c #895AA5",
"Z  c #8959A6",
"A  c #895AA6",
"S  c #895BA6",
"D  c #8A5BA6",
"F  c #8A5BA7",
"G  c #8A5CA6",
"H  c #8A5CA7",
"J  c #8A5DA7",
"K  c #8B5DA7",
"L  c #8B5EA7",
"P  c #8C5EA7",
"I  c #8C5FA8",
"U  c #8C60A8",
"Y  c #8D60A8",
"T  c #8D61A8",
"R  c #8D60A9",
"E  c #8D61A9",
"W  c #8E61A9",
"Q  c #8E62A9",
"!  c #8E63A9",
"~  c #8E61AA",
"^  c #8F63AA",
"/  c #8F64AA",
"(  c #9064AA",
")  c #9065AA",
"_  c #9064AB",
"`  c #9065AB",
"'  c #9066AB",
"]  c #9166AB",
"[  c #9167AB",
"{  c #9165AC",
"}  c #9166AC",
"|  c #9267AC",
" . c #9267AD",
".. c #9268AC",
"X. c #9369AE",
"o. c #946AAD",
"O. c #946AAF",
"+. c #956BAF",
"@. c #956CAF",
"#. c #966CB0",
"$. c #976DB1",
"%. c #976EB1",
"&. c #986EB1",
"*. c #9971B2",
"=. c #9A72B3",
"-. c #9B73B3",
";. c #9C75B4",
":. c #9D76B5",
">. c #A079B7",
",. c #A07AB7",
"<. c #A17BB8",
"1. c #A17CB8",
"2. c #A27DB8",
"3. c #A27DB9",
"4. c #A37EB9",
"5. c #A37FB9",
"6. c #A47FBA",
"7. c #A480BA",
"8. c #A481BB",
"9. c #A581BB",
"0. c #A582BB",
"q. c #A682BC",
"w. c #A683BC",
"e. c #A784BC",
"r. c #A785BC",
"t. c #A784BD",
"y. c #A885BD",
"u. c #A886BD",
"i. c #A987BE",
"p. c #A988BE",
"a. c #AE8EC1",
"s. c #AE8DC2",
"d. c #AE8EC2",
"f. c #AF8FC3",
"g. c #B091C3",
"h. c #B293C4",
"j. c #B395C6",
"k. c #B496C6",
"l. c #B699C8",
"z. c #B79BC8",
"x. c #B79BC9",
"c. c #B89CCA",
"v. c #B99CCA",
"b. c #B99ECA",
"n. c #BA9ECB",
"m. c #BFA5CF",
"M. c #BFA6CF",
"N. c #C0A6CF",
"B. c #C0A7D0",
"V. c #C1A9D0",
"C. c #C1A9D1",
"Z. c #C2A9D1",
"A. c #C2AAD1",
"S. c #C3ABD1",
"D. c #C3ABD2",
"F. c #C3ACD2",
"G. c #C4ACD2",
"H. c #C6AFD4",
"J. c #C6B0D4",
"K. c #C7B1D5",
"L. c #C9B3D6",
"P. c #CAB5D7",
"I. c #CCB8D8",
"U. c #CEBADA",
"Y. c #CFBCDB",
"T. c #D0BDDB",
"R. c #D0BEDC",
"E. c #D1BFDC",
"W. c #D1BFDD",
"Q. c #D2C0DD",
"!. c #D3C1DD",
"~. c #D6C6E0",
"^. c #D7C7E1",
"/. c #D7C8E1",
"(. c #D8C8E1",
"). c #DACBE3",
"_. c #DACCE3",
"`. c #DBCDE4",
"'. c #DFD1E7",
"]. c #DFD2E7",
"[. c #E1D4E8",
"{. c #E2D6E9",
"}. c #E2D7E9",
"|. c #E7DDED",
" X c #E7DEED",
".X c #E8DEED",
"XX c #E8DFEE",
"oX c #E9E0EE",
"OX c #E9E1EE",
"+X c #E9E1EF",
"@X c #EFE8F3",
"#X c #EFE9F3",
"$X c #F0EBF4",
"%X c #F7F4F9",
"&X c #F8F5F9",
"*X c #F8F5FA",
"=X c white",
/* pixels */
"                                                                ",
"  ..| [ [ [ ^ ^ ^ ^ ^ ^ I J J D J D D D m b b x x x h g g g g i ",
"  | [ [ [ / ^ ^ ^ ^ ^ I J J J J D D D m b b x x x h g g g g i i ",
"  [ [ [ [ ^ ^ ^ ^ ^ I P J J J D D D D m b x x x h h g g g i i r ",
"  [ [ [ / ^ ^ ^ ^ ^ I J J J D D D D m b x x x x h g g g i i r r ",
"  [ [ / ^ ^ ^ ^ ^ 2.u.u.r.r.r.w.w.0.0.0.0.6.2.2.2.=.g g i i r e ",
"  [ / ^ ^ ^ ^ p.g.z.=X=X=X=X=X=X=X=X=X=X=X=X=X=X=X=X=.i i r e e ",
"  / ^ ^ ^ ^ o.*X*X2.I.=X=X=X=X=X=X=X=X=X=X=X=X=X=X=X@XD r r e q ",
"  ^ ^ ^ ^ ^ {.=X=X+X| {.=X=X=X=X=X=X=X=X=X=X=X=X=X=X=X/.r e q q ",
"  ^ ^ ^ ^ J.=X=X=X=X_.[ G.F.D.D.D.D.D.D.D.L.XX=X=X=X=X=Xd.q q q ",
"  ^ ^ ^ p.=X=X=X=X=X=XG.D F.D.D.D.D.D.D.D.h.J n.=X=X=X=X%X#.q q ",
"  ^ ^ o.*X=X=X=X$X=X=X=X0.k.=X=X=X=X=X=X=X=X(.i (.=X=X=X=X Xx q ",
"  ^ ^ z.=X=X=X=Xd.Q.=X=X*X@.P.=X=X=X=X=X=X=X=Xn.D @X=X=X=X=Xo.q ",
"  ^ ^ I `.=X=X=X*X[ +X=X=XXX^ {.=X=X=X=X=X=X=X=Xr J.=X=X=XI.q 3 ",
"  ^ I J | +X=X=X=X+X^ *X=X=XW.I XX=X=X=X=X=X=XY.e  X=X=X Xq 3 2 ",
"  I J J J ,.*X=X=X=XQ.:.=X=X=Xn.=.%X=X=X=X=X Xm m.=X=X%Xx 3 3 2 ",
"  P J J J D d.=X=X=X=Xj.j.=X=X=X2.u.=X=X=X%X&.r.=X=X=Xo.q 3 2 > ",
"  J J J D D D F.=X=X=X=X:.W.=X=X=X2.n.=X=Xu.%.%X=X=Xd.q 3 2 > > ",
"  J J D D D D m (.=X=X=X%X..XX=X=X<.i T.J.b  X=X=XH.q 3 2 2 > > ",
"  J J D D D m b ^ XX=X=X=XXX=.%X=X<.i r e ^.=X=X].q 3 2 2 > > : ",
"  J D D D D m b x o.%X=X=X=XW.D <.D r r %.].].^.x q 3 2 > > : : ",
"  D D D D m b x x x 2.=X=X=X=X(.B.N.N.m.m.m.z.q q 3 2 > > > : : ",
"  D D D m b b x x x h n.=X=X=X=X=X=X=X=X=X=Xd.q 3 2 > > > : : : ",
"  D D m b b x x x h g g W.=X=X=X=X=X=X=X=XH.q 3 2 2 > > : : : % ",
"  D m m b x x x h h g g D  X=X=X=X=X=X=X].q q 3 2 > > : : : % % ",
"  m m b x x x h h g g g i | %X=X=X=X=X@Xx q 3 2 > > : : : : % # ",
"  m b x x x x h g g g i i r ,.=X=X=X%Xo.q 3 2 > > > : : : % # # ",
"  b b x x x h g g g g i i r e d.].].w.q 3 2 2 > > : : : % % # # ",
"  b x x x h g g g g i i r e e q q q q 3 2 2 > > : : : % % # # # ",
"  x x x h h g g g i i r r e q q q q q 3 2 > > : : : : % # # # o ",
"  x x x h g g g i i r r e q q q q q 3 2 > > > : : : % # # # o o ",
"  x x h g g g g i r r e q q q q q 3 2 2 > > : : : % % # # o o . "
};
