/* XPM */
static char *e51a9074642a47ecc237e948ee7f86davmZVOV0zRANK52rQ[] = {
/* columns rows colors chars-per-pixel */
"64 64 244 2 ",
"   c None",
".  c #733B96",
"X  c #743B96",
"o  c #743B97",
"O  c #743C97",
"+  c #753C97",
"@  c #753D97",
"#  c #753D98",
"$  c #753E98",
"%  c #763E98",
"&  c #763F98",
"*  c #773F99",
"=  c #774099",
"-  c #774199",
";  c #784199",
":  c #78419A",
">  c #78429A",
",  c #79429A",
"<  c #79439A",
"1  c #79449B",
"2  c #7A449B",
"3  c #7A459B",
"4  c #7B459B",
"5  c #7B469C",
"6  c #7C479C",
"7  c #7C489C",
"8  c #7C489D",
"9  c #7D489D",
"0  c #7D499D",
"q  c #7D4A9D",
"w  c #7E4A9E",
"e  c #7E4B9E",
"r  c #7F4B9E",
"t  c #7F4C9E",
"y  c #7F4C9F",
"u  c #804D9F",
"i  c #804E9F",
"p  c #804EA0",
"a  c #814EA0",
"s  c #814FA0",
"d  c #8250A0",
"f  c #8250A1",
"g  c #8251A1",
"h  c #8351A1",
"j  c #8352A1",
"k  c #8352A2",
"l  c #8453A2",
"z  c #8454A2",
"x  c #8554A2",
"c  c #8554A3",
"v  c #8555A3",
"b  c #8656A3",
"n  c #8656A4",
"m  c #8756A4",
"M  c #8657A4",
"N  c #8757A4",
"B  c #8757A5",
"V  c #8758A4",
"C  c #8858A5",
"Z  c #8859A5",
"A  c #885AA5",
"S  c #895AA5",
"D  c #8859A6",
"F  c #8959A6",
"G  c #895AA6",
"H  c #895BA6",
"J  c #8A5BA7",
"K  c #8A5CA6",
"L  c #8A5CA7",
"P  c #8A5DA7",
"I  c #8B5DA7",
"U  c #8B5EA7",
"Y  c #8C5EA7",
"T  c #8C5EA8",
"R  c #8C5FA8",
"E  c #8D5FA9",
"W  c #8C60A8",
"Q  c #8D60A8",
"!  c #8D61A8",
"~  c #8D60A9",
"^  c #8D61A9",
"/  c #8E61A9",
"(  c #8E62A9",
")  c #8E63A9",
"_  c #8E62AA",
"`  c #8F62AA",
"'  c #8F63AA",
"]  c #8F63AB",
"[  c #8F64AA",
"{  c #9063AB",
"}  c #9064AA",
"|  c #9065AA",
" . c #9064AB",
".. c #9065AB",
"X. c #9066AB",
"o. c #9166AB",
"O. c #9167AB",
"+. c #9064AC",
"@. c #9065AC",
"#. c #9165AC",
"$. c #9166AC",
"%. c #9167AC",
"&. c #9267AC",
"*. c #9266AD",
"=. c #9267AD",
"-. c #9268AC",
";. c #9369AD",
":. c #936AAD",
">. c #9469AE",
",. c #946AAF",
"<. c #956BAF",
"1. c #956CAF",
"2. c #966DAF",
"3. c #966CB0",
"4. c #976DB0",
"5. c #976EB1",
"6. c #986FB0",
"7. c #986EB1",
"8. c #986FB1",
"9. c #9870B1",
"0. c #9970B1",
"q. c #9970B2",
"w. c #9A72B3",
"e. c #9A74B3",
"r. c #9B74B3",
"t. c #9C74B4",
"y. c #9C75B4",
"u. c #9E77B5",
"i. c #9E76B6",
"p. c #9E77B6",
"a. c #9F78B6",
"s. c #9F7AB7",
"d. c #A07AB7",
"f. c #A17CB8",
"g. c #A17CB9",
"h. c #A27DB8",
"j. c #A27DB9",
"k. c #A37EB9",
"l. c #A37FB9",
"z. c #A37FBA",
"x. c #A47FBA",
"c. c #A480BA",
"v. c #A481BB",
"b. c #A581BB",
"n. c #A582BB",
"m. c #A682BB",
"M. c #A682BC",
"N. c #A683BC",
"B. c #A784BC",
"V. c #A784BD",
"C. c #A885BD",
"Z. c #A986BE",
"A. c #A987BE",
"S. c #AA88BE",
"D. c #AA89BF",
"F. c #AB89BF",
"G. c #AB8AC0",
"H. c #AC8BC0",
"J. c #AD8CC1",
"K. c #AE8DC2",
"L. c #AE8EC2",
"P. c #B091C3",
"I. c #B091C4",
"U. c #B192C4",
"Y. c #B294C5",
"T. c #B496C6",
"R. c #B497C6",
"E. c #B598C7",
"W. c #B699C7",
"Q. c #B699C8",
"!. c #B79AC8",
"~. c #B79BC8",
"^. c #B79BC9",
"/. c #B89BC9",
"(. c #B99DCA",
"). c #B99ECB",
"_. c #BBA0CB",
"`. c #BCA1CC",
"'. c #BCA2CC",
"]. c #BDA2CD",
"[. c #BEA4CE",
"{. c #BFA5CF",
"}. c #BFA6CF",
"|. c #C0A6CF",
" X c #C0A7D0",
".X c #C1A8D0",
"XX c #C1A9D0",
"oX c #C1A9D1",
"OX c #C2A9D1",
"+X c #C2AAD1",
"@X c #C3ABD1",
"#X c #C3ABD2",
"$X c #C3ACD2",
"%X c #C4ACD2",
"&X c #C4ADD2",
"*X c #C4ADD3",
"=X c #C5AED3",
"-X c #C5AFD3",
";X c #C6AFD4",
":X c #C7B1D5",
">X c #CAB5D7",
",X c #CBB7D8",
"<X c #CCB8D8",
"1X c #CDB9D9",
"2X c #CEBBDA",
"3X c #CFBCDB",
"4X c #D0BDDB",
"5X c #D1BFDC",
"6X c #D2C0DD",
"7X c #D3C1DD",
"8X c #D3C2DE",
"9X c #D6C6E0",
"0X c #D7C7E1",
"qX c #D7C8E1",
"wX c #D8C8E2",
"eX c #D8C9E2",
"rX c #D9C9E2",
"tX c #D9CAE2",
"yX c #D9CAE3",
"uX c #DACBE3",
"iX c #DACCE3",
"pX c #DFD1E7",
"aX c #DFD2E7",
"sX c #E0D3E7",
"dX c #E0D4E8",
"fX c #E1D6E9",
"gX c #E2D7E9",
"hX c #E7DDED",
"jX c #E7DEED",
"kX c #E8DEED",
"lX c #E8DFED",
"zX c #E8DFEE",
"xX c #E9E0EE",
"cX c #E9E1EF",
"vX c #EFE8F3",
"bX c #EFE9F3",
"nX c #F0E9F3",
"mX c #F0EAF4",
"MX c #F0EBF4",
"NX c #F1EBF4",
"BX c #F7F4F9",
"VX c #F8F5F9",
"CX c #F8F5FA",
"ZX c white",
/* pixels */
"                                                                                                                                ",
"  -.-.&.O.O.O.O.O.O.O.[ ' ' ' ' ' ' ' ' ' ' R R Y U U U U U U U H H H H H H H V V n n n b b b b b b b l l l k k k k k k s s s s ",
"  -.&.O.O.O.O.O.O.O.[ [ ' ' ' ' ' ' ' ' ' R R R U U U U U U U H H H H H H H V V V n n n b b b b b b l l l k k k k k k k s s s s ",
"  &.O.O.O.O.O.O.O.[ [ ' ' ' ' ' ' ' ' ' ' R R U U U U U U U H H H H H H H H V V n n n b b b b b b l l l k k k k k k k s s s s i ",
"  &.O.O.O.O.O.O.' ' ' ' ' ' ' ' ' R ' ' R R Y U U U U U U U H H H H H H H V V n n n b b b b b b b l l k k k k k k k s s s s i i ",
"  O.O.O.O.O.O.[ ' ' ' ' ' ' ' ' ' R ' R R Y U U U U U U U H H H H H H H V V n n n b b b b b b b l l k k k k k k k s s s s i i i ",
"  O.O.O.O.O.{ ' ' ' ' ' ' ' ' W R Y U R R U U U U U U U H H H H H H H V V V n n n b b b b b b l l l k k k k k k k s s s s i i i ",
"  O.O.O.O.O.[ ' ' ' ' ' ' ' ' R Y U U R U U U U U H U H H H H H H H H V V n n n b b b b b b l l l k k k k k k k s s s s i i i y ",
"  O.O.O.O.[ [ ' ' ' ' ' ' ' ' ' ' R R U U U U U H H H H H H H H H H V V n n n b b b b b b b l l k k k k k k k s s s s i i i y y ",
"  O.O.O.[ [ ' ' ' ' ' ' ' ' ' ' R R Y U U U U U H H H H H H H H H V V n n n b b b b b b b l l k k k k k k k s s s s i i i i y y ",
"  O.O.O.[ ' ' ' ' ' ' ' ' ' ' R R ^.=X=X=X=X=X=X=X=X=X=X=X=X=X=X$X$X#X#X#X#X#X#X#X#X#X#X#X#X#X#X#X#XU k k k s s s i i i i y y r ",
"  O.O.[ [ ' ' ' ' ' ' ' ' ' -.R R f.ZXZXZXZXZXZXZXZXZXZXZXZXZXZXZXZXZXZXZXZXZXZXZXZXZXZXZXZXZXZXZXZXuXk k s s s s i i i y y r r ",
"  O.[ [ ' ' ' ' ' ' ' R R e.CX^.U U [.ZXZXZXZXZXZXZXZXZXZXZXZXZXZXZXZXZXZXZXZXZXZXZXZXZXZXZXZXZXZXZXZX).s s s s i i i y y y r r ",
"  ' [ ' ' ' ' ' ' ' R R ' cXZXCXf.U U 8XZXZXZXZXZXZXZXZXZXZXZXZXZXZXZXZXZXZXZXZXZXZXZXZXZXZXZXZXZXZXZXZXe.s s i i i i y y r r r ",
"  ' ' ' ' ' ' ' ' ' R R 1XZXZXZXNX&.U &.cXZXZXZXZXZXZXZXZXZXZXZXZXZXZXZXZXZXZXZXZXZXZXZXZXZXZXZXZXZXZXZXbXH i i i i y y r r r r ",
"  ' ' ' ' ' ' ' ' R R P.ZXZXZXZXZXgXU U e.CXZXZXZXZXZXZXZXZXZXZXZXZXZXZXZXZXZXZXZXZXZXZXZXZXZXZXZXZXZXZXZXqXi i i y y r r r r r ",
"  ' ' ' ' ' ' ' ' ' e.CXZXZXZXZXZXZX1XU H N.ZXZXZXZXZXZXZXZXZXZXZXZXZXZXZXZXZXZXZXZXZXZXZXZXZXZXZXZXZXZXZXZX/.i r r r r r r r r ",
"  ' ' ' ' ' ' Y ' ' cXZXZXZXZXZXZXZXZXW.H H ].ZXZXZXZXZXZXZXZXZXZXZXZXZXZXZXZXZXZXZXZXZXZXZXZXZXZXZXZXZXZXZXZX5.r r r r r r r r ",
"  ' ' ' ' ' ' R ' 1XZXZXZXZXZXZXZXZXZXCXs.H H N.N.m.m.m.m.m.m.m.m.m.m.x.f.f.f.f.f.f.f.U.gXZXZXZXZXZXZXZXZXZXZXhXn r r r r r r r ",
"  ' ' ' ' ' ' ' P.ZXZXZXZXZXZXZXZXZXZXZXcXO.H H H V V V n n n b b b b b b l l l k k k k k U.ZXZXZXZXZXZXZXZXZXZX3Xr r r r r r r ",
"  ' ' ' ' ' ' e.CXZXZXZXZXZXZXZXZXZXZXZXZXuXH H H ].#X#X#X#X#X#X#X#X#X#X#X#X#X#X#X#XU.k k k U.ZXZXZXZXZXZXZXZXZXZXJ.r r r r r r ",
"  ' ' ' ' ' ' gXZXZXZXZXZXZXZXZXZXZXZXZXZXZX=XH V R.ZXZXZXZXZXZXZXZXZXZXZXZXZXZXZXZXZX#Xk s s 4XZXZXZXZXZXZXZXZXZXBX5.r r r r r ",
"  ' ' ' ' ' ;XZXZXZXZXZXZXZXZXiX8XZXZXZXZXZXZXJ.V n #XZXZXZXZXZXZXZXZXZXZXZXZXZXZXZXZXZXA.s s H hXZXZXZXZXZXZXZXZXZXhXb r r 5 5 ",
"  ' ' ' ' f.ZXZXZXZXZXZXZXZXCX&.&.cXZXZXZXZXZXCXu.n n uXZXZXZXZXZXZXZXZXZXZXZXZXZXZXZXZXBX&.s i 6.ZXZXZXZXZXZXZXZXZXZX^.r r r 5 ",
"  ' ' ' ' -.CXZXZXZXZXZXZXZXZXe.H 6.CXZXZXZXZXZXcX' n ' zXZXZXZXZXZXZXZXZXZXZXZXZXZXZXZXZXhXH i i |.ZXZXZXZXZXZXZXZXZXN.6 r 5 6 ",
"  R ' ' R R f.ZXZXZXZXZXZXZXZXcXO.H N.ZXZXZXZXZXZXuXb b ,.BXZXZXZXZXZXZXZXZXZXZXZXZXZXZXZXZX:Xi i ' ZXZXZXZXZXZXZXZX;Xr r r 6 6 ",
"  R R R R Y U ^.ZXZXZXZXZXZXZXZX8XH H ].ZXZXZXZXZXZX_.b b x.ZXZXZXZXZXZXZXZXZXZXZXZXZXZXZXZXZXi i y ZXZXZXZXZXZXZXaXr r r 6 6 5 ",
"  R R R Y U U U 8XZXZXZXZXZXZXZXZX].H V 8XZXZXZXZXZXZXm.b b Y.ZXZXZXZXZXZXZXZXZXZXZXZXZXZXZX:Xi y 5.ZXZXZXZXZXZXvXl 5 r 6 6 5 5 ",
"  R R R U U U U U cXZXZXZXZXZXZXZXZXm.V ' cXZXZXZXZXZXBX,.b l 5XZXZXZXZXZXZXZXZXZXZXZXZXZXhXi y y 1XZXZXZXZXZXBX,.r r 6 6 5 5 5 ",
"  R R U U U U U U &.NXZXZXZXZXZXZXZXCX1.n 1.BXZXZXZXZXZXzXR l l zXZXZXZXZXZXZXZXZXZXZXZXBXH y y s.ZXZXZXZXZXZXJ.r r 6 6 6 5 5 4 ",
"  R Y U U U U U U H s.CXZXZXZXZXZXZXZXcX' n H.ZXZXZXZXZXZX5Xl k U nXZXZXZXZXZXZXZXZXZXZXd.i y ' BXZXZXZXZXZX;Xr r r 6 6 5 5 4 4 ",
"  Y U U U U U U U H H W.ZXZXZXZXZXZXZXZX8Xb b #XZXZXZXZXZXZX).k k e.BXZXZXZXZXZXZXZXZX/.i y n hXZXZXZXZXZX0Xr r r 6 6 5 5 5 4 4 ",
"  U U U U U U U H H H H ,XZXZXZXZXZXZXZXZX_.b b uXZXZXZXZXZXZXf.k k A.ZXZXZXZXZXZXZX0Xi y y 3XZXZXZXZXZXhXb r 6 6 5 5 5 5 4 4 4 ",
"  U U U U H U H H H H H H gXZXZXZXZXZXZXZXZXG.b R zXZXZXZXZXZXBX#Xk k ).ZXZXZXZXZXhXH y y [.ZXZXZXZXZXBX,.r r 6 5 5 5 5 4 4 4 4 ",
"  U U U H H H H H H H H H ' NXZXZXZXZXZXZXZXBXu.b e.BXZXZXZXZXZXZXk k s 4XZXZXZXBX6.y y V.ZXZXZXZXZXZXN.r r r 6 6 5 5 4 4 4 4 4 ",
"  U U U U U H H H H H H H V u.CXZXZXZXZXZXZXZXzXR l F.ZXZXZXZXZXZXk s s s hXZXZXA.i y 5.BXZXZXZXZXZX].6 r r 6 6 5 5 5 4 4 4 4 < ",
"  U U U U H H H H H H H V V n R.ZXZXZXZXZXZXZXZXuXl l #XZXZXZXZXZXk s s s H hX:Xi y n hXZXZXZXZXZX0Xr 5 r 6 6 5 5 5 4 4 4 4 4 < ",
"  U U U H H H H H H H V V V n n >XZXZXZXZXZXZXZXZX#Xk k gXZXZXZXZXs s s s i { i y y 0XZXZXZXZXZXhXb r 6 6 6 5 5 5 4 4 4 4 4 < < ",
"  U U H H H H H H H H V V n n n b uXZXZXZXZXZXZXZXZXF.k U bXZXZXZXs s s i i i y y [.ZXZXZXZXZXBX,.r r r 6 6 5 5 4 4 4 4 4 < < < ",
"  U U H H H H H H H V V n n n b b ' zXZXZXZXZXZXZXZXBXe.k &.#X X Xs s i i i i y V.ZXZXZXZXZXZXu.r r r 6 6 5 5 5 4 4 4 4 < < < < ",
"  H H H H H H H H V V n n n b b b b u.BXZXZXZXZXZXZXZXzXH k s s s s i i i i y y 5.aXaXaXaXaXJ.r r r 6 6 5 5 5 4 4 4 4 4 < < < < ",
"  H H H H H H H V n V n n n b b b b b F.ZXZXZXZXZXZXZXZXsXk s s s s i i i y y r r r r r r r r r r 6 6 5 5 5 4 4 4 4 4 < < < < < ",
"  H H H H H H H V n n n n b b b b b b l #XZXZXZXZXZXZXZXZXbX X X X|.|.|.[.[.[.[.[.[.[.[.N.r r r 6 6 6 5 5 4 4 4 4 4 < < < < < < ",
"  H H H H H H V n n n n b b b b b b b l l uXZXZXZXZXZXZXZXZXZXZXZXZXZXZXZXZXZXZXZXZXZXBX' r r r 6 6 5 5 4 4 4 4 4 < < < < < < < ",
"  H H H H H V V n n n b b b b b b b l l k U zXZXZXZXZXZXZXZXZXZXZXZXZXZXZXZXZXZXZXZXZXu.6 6 5 5 6 5 5 5 4 4 4 4 < < < - < < < - ",
"  H H H H V V n n n n b b b b b b l l l k k e.BXZXZXZXZXZXZXZXZXZXZXZXZXZXZXZXZXZXZX^.r 5 5 5 5 5 5 5 4 4 4 4 4 < < < < < < - - ",
"  H H H H V V n n n b b b b b b l l l k k k k f.ZXZXZXZXZXZXZXZXZXZXZXZXZXZXZXZXZX1Xr r r 6 5 5 5 5 4 4 4 4 4 < < < < < < - - - ",
"  H H H V V n n n b b b b b b l l l k k k k k k ).ZXZXZXZXZXZXZXZXZXZXZXZXZXZXZXhXl r r r 6 6 5 5 4 4 4 4 4 < < < < < < < - - - ",
"  H H V V n n n b b b b b l b l l k k k k k k k s 4XZXZXZXZXZXZXZXZXZXZXZXZXZXBXb r r r 6 5 5 5 5 4 4 4 4 < < < < < < < * * - * ",
"  H V V n n n b b b b b l l l l l k k k k k k k s H hXZXZXZXZXZXZXZXZXZXZXZXZX,.r r r 6 5 5 5 5 4 4 4 4 4 < < < < < < - * * * * ",
"  n n V n n n b b b b b b l l l k k k k k k k s s s &.BXZXZXZXZXZXZXZXZXZXZXJ.r r r 6 6 5 5 5 4 4 4 4 4 < < < < < < - - * * * * ",
"  n n n n n b b b b b b l l l k k k k k k k s s s s i d.ZXZXZXZXZXZXZXZXZX1Xr r r r 6 6 5 5 4 4 4 4 4 < < < < < < < - - * * * * ",
"  V n n n b b b b b b b l l k k k k k k s i i i s i i i ^.ZXZXZXZXZXZXZXhXr r r r 6 6 5 5 5 4 4 4 4 < < < < < < < - - - * * * * ",
"  n n n b b b b b b b l l k k k k k k k i i s s i i i i y 3XZXZXZXZXZXBXb r r r 6 6 5 5 5 4 4 4 4 4 < < < < < < - - - * * * * * ",
"  n n n b b b b b b l l l k k k k k k k s s s s i i i y y n hXZXZXZXZX,.r r r 6 6 5 5 5 4 4 4 4 < < < < < < < - - - * * * * * * ",
"  n n b b b b b b l l l k k k k k k k s s s s i i i y y r r r r r r r r 6 r 6 6 6 5 5 4 4 4 4 4 < < < < < < - - - - * * * * * @ ",
"  n b b b b b b b l l k k k k k s s s s s s i i i y y y r r r r r r r r r r 6 6 5 5 4 4 4 4 4 < < < < < < < - - - * * * * * @ @ ",
"  b b b b b b b l l k k k k k k s s s s s i i i i y y r r r r r r r r r r 6 6 5 5 5 4 4 4 4 < < < < < < < - - - * * * * * * @ @ ",
"  b b b b b b l l l k k k k k s k s s s i i i i y y r r r r r r r r r r 6 6 5 5 5 4 4 < 4 4 < < < < < < - - - * * * * * * @ @ @ ",
"  b b b b b l l l k k k k k k s s s s s i i i y y r r r r r r r r 6 8 6 6 6 5 5 4 4 4 4 4 < < < < < < - - - * * * * * * @ @ @ @ ",
"  b b b b l l l k k k k k k k s s s s i i i y y y r r r r r r r 6 5 r 6 6 5 5 4 4 4 4 4 < < < < < < < * * * * * * * * @ @ @ @ o ",
"  b b b b l l k k k k k k k s s s s i i i i y y r r r r r r r r 5 5 6 6 5 5 5 4 4 4 4 < < < < < < < - - - * * * * * * @ @ O o o ",
"  b b b l l l k k k k k k s s s s i i i i y y r r r r r r r r 8 5 5 5 5 5 5 4 4 4 4 4 < < < < < < - * * * * * * * * @ @ O @ o . ",
"  b b l l l k k k k k k s s s s s i i i y y r r r r r r r r r 8 5 5 5 5 5 4 4 4 4 4 < < < < < < - * * * * * * * * @ @ O @ o o . "
};
